<svg width="236.000000" height="26.000000" viewBox="0 0 236 26" fill="none" xmlns="http://www.w3.org/2000/svg" xmlns:xlink="http://www.w3.org/1999/xlink">
	<desc>
			Created with Pixso.
	</desc>
	<defs/>
	<path id="coffeeroasters" d="M43.5591 23.6837C42.5812 24.1576 41.4403 24.3945 40.1364 24.3945Q38.1965 24.3945 36.636 23.6251L36.635 23.6246Q36.5309 23.5732 36.4285 23.5184Q35.7607 23.1614 35.2081 22.6738Q34.4051 21.9653 33.8451 20.9813Q32.8998 19.3201 32.8998 16.9399Q32.8998 14.813 33.7449 13.1039Q33.8127 12.9668 33.8859 12.8325Q34.399 11.8906 35.1218 11.1547Q35.7879 10.4764 36.6322 9.97302Q36.7159 9.9231 36.801 9.87549Q38.5041 8.92346 40.7394 8.92346Q42.7442 8.92346 44.1214 9.51843Q45.4987 10.1135 46.2239 11.13Q46.575 11.6221 46.7561 12.1702Q46.9492 12.7546 46.9492 13.4027Q46.9492 14.5111 46.4167 15.2189L46.4167 15.219Q46.3139 15.3555 46.1913 15.4772Q46.0582 15.6094 45.9081 15.7183Q45.2043 16.2292 44.1296 16.2292Q42.9856 16.2292 42.3133 15.6661Q42.2001 15.5713 42.1004 15.4606C41.6386 14.9482 41.4077 14.2457 41.4077 13.3531L41.4077 12.2953Q41.4077 11.4855 41.1143 11.0721C40.9187 10.7968 40.6417 10.6589 40.2831 10.6589Q40.1321 10.6589 39.9896 10.6935Q39.624 10.7819 39.3133 11.0969C39.0254 11.389 38.8026 11.827 38.6451 12.411Q38.4088 13.2871 38.4088 14.5763C38.4088 15.8104 38.5908 16.8463 38.9547 17.6837C39.3187 18.5212 39.8159 19.1493 40.446 19.5681Q40.7485 19.769 41.0777 19.9056Q41.7773 20.1962 42.5975 20.1962C43.4016 20.1962 44.0752 20.0778 44.6185 19.8408C45.1618 19.6039 45.5801 19.2045 45.8735 18.6425C46.0365 18.4882 46.1642 18.389 46.2565 18.345C46.3489 18.3008 46.4385 18.2788 46.5255 18.2788C46.6341 18.2898 46.7238 18.3422 46.7944 18.4358C46.8556 18.517 46.8862 18.6375 46.8862 18.7972C46.8862 18.8219 46.8855 18.8474 46.884 18.8739C46.7971 19.9537 46.4657 20.9069 45.8898 21.7334C45.3139 22.5598 44.537 23.21 43.5591 23.6837ZM60.1267 23.3531C58.9043 24.0254 57.4836 24.3615 55.8646 24.3615Q53.5013 24.3615 51.7166 23.3779Q50.7104 22.8235 49.9555 22.03Q49.3714 21.416 48.9377 20.6589Q48.9053 20.6025 48.8741 20.5455Q47.9435 18.8492 47.9435 16.6425Q47.9435 15.0134 48.525 13.6285Q48.7223 13.1586 48.9866 12.7168C49.682 11.5543 50.6436 10.6315 51.8714 9.94824Q51.9116 9.9259 51.952 9.90405Q53.7654 8.92346 56.1091 8.92346Q58.4887 8.92346 60.2653 9.91516C61.4496 10.5763 62.3732 11.491 63.036 12.6589C63.6989 13.827 64.0302 15.1769 64.0302 16.7085C64.0302 18.1631 63.6853 19.4662 62.9953 20.6177C62.3053 21.7692 61.3491 22.681 60.1267 23.3531ZM57.1033 22.6425C56.7665 22.7085 56.4378 22.5598 56.1172 22.1962C55.7967 21.8325 55.4925 21.2209 55.2045 20.3615Q54.7726 19.0721 54.3814 16.973C54.1315 15.5736 53.9903 14.422 53.9577 13.5184C53.9522 13.3679 53.9495 13.2234 53.9495 13.0851Q53.9495 12.0474 54.1533 11.4689C54.3163 11.0061 54.5662 10.7361 54.903 10.6589C55.2398 10.5929 55.5685 10.7416 55.8891 11.1052C56.2096 11.4689 56.5166 12.0804 56.8099 12.9399C57.1033 13.7994 57.3804 14.929 57.6412 16.3284C57.9019 17.7278 58.0459 18.8821 58.0731 19.7913C58.0768 19.9175 58.0787 20.0394 58.0787 20.1571C58.0787 20.8865 58.0062 21.4506 57.8612 21.849C57.6928 22.3119 57.4402 22.5763 57.1033 22.6425ZM75.6512 23.3036C75.6512 23.8104 75.3959 24.064 74.8852 24.064L65.8883 24.064C65.671 24.064 65.4944 24.0006 65.3586 23.8739C65.2228 23.7471 65.1548 23.5681 65.1548 23.3367C65.1548 23.1383 65.201 22.9785 65.2934 22.8573C65.3857 22.7361 65.5297 22.637 65.7253 22.5598L66.4261 22.345Q66.5557 22.3038 66.6571 22.2261Q66.7598 22.1473 66.8336 22.0309C66.9314 21.8766 66.9803 21.6562 66.9803 21.3698L66.9803 11.816C66.9803 11.6617 66.9423 11.5322 66.8662 11.4276C66.7902 11.3229 66.6489 11.2264 66.4424 11.1383L65.4971 10.8242C65.2472 10.703 65.0679 10.5736 64.9593 10.4358Q64.9229 10.3896 64.8946 10.339Q64.7963 10.1627 64.7963 9.93164C64.7963 9.7334 64.8642 9.5708 65 9.44409L65.0534 9.39954C65.1835 9.30249 65.3531 9.25403 65.5623 9.25403L66.9925 9.25403L66.9813 9.15747C66.9508 8.96423 66.8744 8.77881 66.7521 8.60107C66.5891 8.36426 66.4044 8.09692 66.198 7.79944Q65.8883 7.35315 65.6438 6.7334Q65.3994 6.11353 65.3994 5.20447Q65.3994 3.80383 66.0131 2.76624Q66.3482 2.19983 66.8662 1.74158C67.8441 0.876587 69.235 0.444092 71.0387 0.444092C72.2013 0.444092 73.1656 0.63147 73.9317 1.0061C74.6977 1.38074 75.2709 1.87939 75.6512 2.50195C76.0315 3.12451 76.2216 3.80493 76.2216 4.54321Q76.2216 5.80286 75.5922 6.45496Q75.5692 6.47888 75.5453 6.50195C75.0943 6.93726 74.5157 7.15479 73.8094 7.15479C73.0271 7.15479 72.3969 6.90137 71.9188 6.39453C71.4407 5.88757 71.2017 5.21545 71.2017 4.37793L71.2017 2.90686Q71.2017 2.32837 70.9735 2.05566C70.8214 1.8739 70.5877 1.78296 70.2726 1.78296C69.8706 1.78296 69.5664 1.92065 69.3599 2.19617C69.1535 2.47168 69.0502 2.86829 69.0502 3.38623C69.0502 3.91516 69.1725 4.41101 69.417 4.8739Q69.4204 4.88037 69.4239 4.88684Q69.7887 5.57373 70.3215 6.17139C70.6801 6.57361 71.0387 6.95923 71.3972 7.32837Q71.9351 7.88208 72.3018 8.41931L72.3715 8.52661Q72.5695 8.84851 72.6356 9.16736L72.6505 9.25403L75.0645 9.25403Q75.4393 9.25403 75.6431 9.41101C75.7789 9.51575 75.8468 9.67822 75.8468 9.89868C75.8468 10.2292 75.7055 10.4991 75.423 10.7085C75.1405 10.918 74.695 11.0226 74.0865 11.0226L72.9293 11.0226L72.9293 21.3201C72.9293 21.6287 72.9755 21.8656 73.0679 22.0309C73.1602 22.1962 73.3096 22.2953 73.5161 22.3284L74.9178 22.5432C75.1677 22.5763 75.3524 22.6562 75.4719 22.783C75.5914 22.9097 75.6512 23.0833 75.6512 23.3036ZM87.0277 23.3036C87.0277 23.8104 86.7723 24.064 86.2617 24.064L77.2648 24.064C77.0475 24.064 76.8709 24.0006 76.7351 23.8739C76.5992 23.7471 76.5313 23.5681 76.5313 23.3367C76.5313 23.1383 76.5775 22.9785 76.6699 22.8573C76.7622 22.7361 76.9062 22.637 77.1018 22.5598L77.8026 22.345Q77.9322 22.3038 78.0335 22.2261Q78.1363 22.1473 78.2101 22.0309C78.3079 21.8766 78.3568 21.6562 78.3568 21.3698L78.3568 11.816C78.3568 11.6617 78.3188 11.5322 78.2427 11.4276C78.1666 11.3229 78.0254 11.2264 77.8189 11.1383L76.8736 10.8242C76.6237 10.703 76.4444 10.5736 76.3358 10.4358Q76.2993 10.3896 76.2711 10.339Q76.1728 10.1627 76.1728 9.93164C76.1728 9.7334 76.2407 9.5708 76.3765 9.44409L76.4298 9.39954C76.56 9.30249 76.7296 9.25403 76.9388 9.25403L78.369 9.25403L78.3578 9.15747C78.3272 8.96423 78.2509 8.77881 78.1286 8.60107C77.9656 8.36426 77.7809 8.09692 77.5745 7.79944Q77.2648 7.35315 77.0203 6.7334Q76.7758 6.11353 76.7758 5.20447Q76.7758 3.80383 77.3896 2.76624Q77.7247 2.19983 78.2427 1.74158C79.2206 0.876587 80.6115 0.444092 82.4152 0.444092C83.5778 0.444092 84.5421 0.63147 85.3082 1.0061C86.0742 1.38074 86.6474 1.87939 87.0277 2.50195C87.408 3.12451 87.5981 3.80493 87.5981 4.54321C87.5981 5.41382 87.3727 6.06665 86.9218 6.50195C86.4708 6.93726 85.8922 7.15479 85.1859 7.15479C84.4036 7.15479 83.7734 6.90137 83.2953 6.39453C82.8172 5.88757 82.5782 5.21545 82.5782 4.37793L82.5782 2.90686Q82.5782 2.32837 82.35 2.05566C82.1978 1.8739 81.9642 1.78296 81.6491 1.78296C81.2471 1.78296 80.9428 1.92065 80.7364 2.19617C80.5299 2.47168 80.4267 2.86829 80.4267 3.38623C80.4267 3.91516 80.549 4.41101 80.7934 4.8739Q80.7968 4.88037 80.8003 4.88672Q81.1652 5.57373 81.698 6.17139C82.0566 6.57361 82.4152 6.95923 82.7737 7.32837Q83.3116 7.88208 83.6783 8.41931L83.748 8.52661Q83.946 8.84851 84.012 9.16736L84.0269 9.25403L86.4409 9.25403Q86.8158 9.25403 87.0195 9.41101C87.1554 9.51575 87.2233 9.67822 87.2233 9.89868C87.2233 10.2292 87.082 10.4991 86.7995 10.7085C86.517 10.918 86.0715 11.0226 85.463 11.0226L84.3058 11.0226L84.3058 21.3201C84.3058 21.6287 84.352 21.8656 84.4443 22.0309C84.5367 22.1962 84.6861 22.2953 84.8925 22.3284L86.2943 22.5432C86.5442 22.5763 86.7289 22.6562 86.8484 22.783C86.9679 22.9097 87.0277 23.0833 87.0277 23.3036ZM99.0235 23.5846C97.9695 24.1245 96.7526 24.3945 95.3726 24.3945C93.8514 24.3945 92.5149 24.0778 91.3631 23.4441C90.2114 22.8104 89.3122 21.9235 88.6657 20.783C88.0192 19.6425 87.6959 18.3229 87.6959 16.8242C87.6959 15.2485 88.0083 13.8683 88.6331 12.6837C89.2579 11.4991 90.1625 10.5763 91.3468 9.91516C92.5312 9.25403 93.9546 8.92346 95.6171 8.92346C97.0296 8.92346 98.2466 9.20166 99.268 9.75818C100.289 10.3146 101.074 11.0695 101.623 12.0226Q101.851 12.4191 102.016 12.8402Q102.446 13.9381 102.446 15.2045C102.446 15.7113 102.31 16.1107 102.039 16.4027L101.974 16.4675C101.706 16.7164 101.337 16.8408 100.865 16.8408L93.4145 16.8408L93.4305 16.917C93.6282 17.8245 93.9659 18.5511 94.4436 19.0969C95.2585 20.0281 96.3451 20.4937 97.7033 20.4937C98.5726 20.4937 99.3413 20.2953 100.01 19.8987C100.678 19.502 101.126 18.9509 101.354 18.2457C101.485 18.1025 101.601 18.0061 101.705 17.9565C101.808 17.9069 101.898 17.8821 101.974 17.8821C102.082 17.8821 102.175 17.9261 102.251 18.0143C102.327 18.1025 102.365 18.2512 102.365 18.4606C102.365 19.5405 102.071 20.5295 101.485 21.4276C100.898 22.3257 100.077 23.0447 99.0235 23.5846ZM93.2444 15.5157Q93.2212 15.1355 93.2212 14.7251C93.2212 13.6893 93.2972 12.8739 93.4493 12.2788C93.6015 11.6837 93.7971 11.2623 94.0361 11.0143C94.2751 10.7664 94.5414 10.6425 94.8347 10.6425C95.2151 10.6425 95.5709 10.9675 95.9023 11.6177Q96.3994 12.5929 96.3994 14.8573C96.3994 15.3201 96.193 15.5515 95.7801 15.5515L93.2465 15.5515L93.2444 15.5157ZM114.605 23.5846C113.551 24.1245 112.334 24.3945 110.954 24.3945C109.433 24.3945 108.096 24.0778 106.945 23.4441C105.793 22.8104 104.894 21.9235 104.247 20.783C103.601 19.6425 103.277 18.3229 103.277 16.8242C103.277 15.2485 103.59 13.8683 104.215 12.6837C104.839 11.4991 105.744 10.5763 106.928 9.91516C108.113 9.25403 109.536 8.92346 111.199 8.92346C112.611 8.92346 113.828 9.20166 114.85 9.75818C115.871 10.3146 116.656 11.0695 117.205 12.0226C117.753 12.9758 118.028 14.0364 118.028 15.2045C118.028 15.7113 117.892 16.1107 117.62 16.4027L117.555 16.4675C117.288 16.7164 116.918 16.8408 116.447 16.8408L108.996 16.8408L109.012 16.917C109.21 17.8245 109.547 18.5511 110.025 19.0969Q110.471 19.6068 111.026 19.9307Q111.991 20.4937 113.285 20.4937C114.154 20.4937 114.923 20.2953 115.591 19.8987C116.259 19.502 116.708 18.9509 116.936 18.2457C117.066 18.1025 117.183 18.0061 117.286 17.9565C117.389 17.9069 117.479 17.8821 117.555 17.8821C117.664 17.8821 117.756 17.9261 117.832 18.0143C117.908 18.1025 117.946 18.2512 117.946 18.4606C117.946 19.5405 117.653 20.5295 117.066 21.4276C116.479 22.3257 115.659 23.0447 114.605 23.5846ZM108.826 15.5157Q108.803 15.1355 108.803 14.7251C108.803 13.6893 108.879 12.8739 109.031 12.2788C109.183 11.6837 109.379 11.2623 109.618 11.0143Q109.887 10.7345 110.203 10.6652Q110.307 10.6425 110.416 10.6425C110.797 10.6425 111.152 10.9675 111.484 11.6177C111.815 12.2678 111.981 13.3477 111.981 14.8573Q111.981 15.2439 111.789 15.4152Q111.636 15.5515 111.362 15.5515L108.828 15.5515L108.826 15.5157ZM128.5 23.8573C128.364 23.9951 128.166 24.064 127.905 24.064L119.755 24.064C119.516 24.064 119.329 23.9978 119.193 23.8656C119.057 23.7334 118.989 23.5515 118.989 23.3201C118.989 23.1438 119.03 22.9978 119.112 22.8821Q119.234 22.7085 119.446 22.5598L119.821 22.411Q119.933 22.3583 120.009 22.2729Q120.076 22.1976 120.114 22.0969C120.168 21.9537 120.195 21.7168 120.195 21.3862L120.195 12.9895C120.195 12.7251 120.166 12.535 120.106 12.4193C120.046 12.3036 119.946 12.2126 119.804 12.1466L119.381 12.0969C119.228 12.0088 119.117 11.9152 119.046 11.816C118.976 11.7168 118.94 11.5901 118.94 11.4358C118.94 11.2595 118.995 11.1025 119.103 10.9647C119.212 10.827 119.397 10.7085 119.658 10.6094L124.286 9.27051C124.558 9.1604 124.786 9.08325 124.971 9.03918Q125.248 8.97302 125.444 8.97302C125.628 8.97302 125.767 9.03918 125.859 9.17139L125.889 9.21936C125.965 9.35754 126.018 9.57849 126.047 9.88208L126.171 12.4506L126.199 12.3557C126.254 12.1768 126.315 12.0051 126.381 11.8408C126.777 10.8546 127.302 10.1218 127.954 9.64246Q128.562 9.19507 129.24 9.02612Q129.652 8.92346 130.089 8.92346C131.023 8.92346 131.74 9.23743 132.24 9.8656C132.74 10.4937 132.99 11.4469 132.99 12.7251Q132.99 14.6259 132.208 15.5184C131.686 16.1135 131.012 16.411 130.187 16.411Q128.998 16.411 128.418 15.8168Q128.41 15.8082 128.402 15.7994C128.016 15.3917 127.812 14.8132 127.791 14.064L127.774 13.4027C127.763 13.1493 127.715 12.9509 127.628 12.8077C127.541 12.6644 127.4 12.5929 127.204 12.5929C127.008 12.5929 126.837 12.6948 126.69 12.8987C126.544 13.1025 126.432 13.4138 126.356 13.8325Q126.242 14.4606 126.242 15.4358L126.242 21.254C126.242 21.5625 126.291 21.8077 126.389 21.9895C126.487 22.1714 126.639 22.2843 126.845 22.3284L128.068 22.5763Q128.39 22.6229 128.539 22.8085Q128.548 22.8202 128.557 22.8325Q128.59 22.8795 128.616 22.9303Q128.703 23.103 128.703 23.3201C128.703 23.5405 128.635 23.7196 128.5 23.8573ZM145.793 23.3531C144.57 24.0254 143.149 24.3615 141.53 24.3615C139.955 24.3615 138.572 24.0336 137.382 23.3779Q136.376 22.8235 135.621 22.03Q135.037 21.4161 134.604 20.6589Q134.571 20.6025 134.54 20.5455Q133.609 18.8492 133.609 16.6425C133.609 15.1879 133.957 13.8794 134.652 12.7168C135.348 11.5543 136.309 10.6315 137.537 9.94824Q137.577 9.9259 137.618 9.90405Q139.431 8.92346 141.775 8.92346C143.361 8.92346 144.747 9.25403 145.931 9.91516C147.115 10.5763 148.039 11.491 148.702 12.6589Q148.727 12.7036 148.752 12.7487Q149.696 14.4696 149.696 16.7085C149.696 18.1631 149.351 19.4662 148.661 20.6177C147.971 21.7692 147.015 22.681 145.793 23.3531ZM142.769 22.6425C142.432 22.7085 142.104 22.5598 141.783 22.1962C141.463 21.8325 141.158 21.2209 140.87 20.3615Q140.438 19.0721 140.047 16.973C139.797 15.5736 139.656 14.422 139.624 13.5184Q139.615 13.2926 139.615 13.0851C139.615 12.3933 139.683 11.8546 139.819 11.4689C139.982 11.0061 140.232 10.7361 140.569 10.6589C140.906 10.5929 141.234 10.7416 141.555 11.1052C141.875 11.4689 142.182 12.0804 142.476 12.9399Q142.916 14.2292 143.307 16.3284C143.568 17.7278 143.712 18.8821 143.739 19.7913C143.743 19.9175 143.745 20.0394 143.745 20.157C143.745 20.8865 143.672 21.4506 143.527 21.849C143.359 22.3119 143.106 22.5763 142.769 22.6425ZM164.87 23.8904C164.283 24.2264 163.534 24.3945 162.621 24.3945C161.523 24.3945 160.673 24.1604 160.07 23.692L159.967 23.6083C159.633 23.3253 159.404 23.0052 159.278 22.6479L159.254 22.574L159.232 22.6027C158.835 23.0934 158.318 23.4895 157.682 23.7913C156.835 24.1934 155.922 24.3945 154.944 24.3945Q153.185 24.3945 152.053 23.5524Q151.926 23.458 151.807 23.3531C151.019 22.6589 150.625 21.772 150.625 20.692C150.625 19.2705 151.198 18.1631 152.345 17.3698C153.491 16.5763 155.232 16.1797 157.568 16.1797L157.744 16.1814C158.089 16.1887 158.393 16.2177 158.655 16.2682L158.741 16.2871L158.742 11.4689C158.742 11.0833 158.652 10.7775 158.473 10.5515C158.294 10.3257 158.052 10.2126 157.748 10.2126C157.465 10.2126 157.229 10.2981 157.039 10.4689C156.849 10.6396 156.753 10.8794 156.753 11.1879L156.753 12.4441Q156.753 13.2251 156.421 13.8208Q156.233 14.158 155.938 14.4358C155.395 14.9482 154.651 15.2045 153.706 15.2045Q152.548 15.2045 151.937 14.6508C151.53 14.2816 151.326 13.7444 151.326 13.0392Q151.326 12.9792 151.329 12.9196Q151.376 11.99 152.149 11.0969C152.698 10.4634 153.518 9.94275 154.61 9.53503C155.702 9.12732 157.063 8.92346 158.693 8.92346Q161.839 8.92346 163.314 10.1218C164.297 10.9207 164.789 12.0474 164.789 13.502L164.789 20.8077C164.789 21.0171 164.835 21.1852 164.927 21.3119C165.02 21.4386 165.158 21.502 165.343 21.502Q165.41 21.502 165.474 21.4884Q165.597 21.4624 165.71 21.3862C165.824 21.3091 165.908 21.1714 165.962 20.973C165.995 20.929 166.033 20.8959 166.076 20.8739C166.12 20.8518 166.169 20.8408 166.223 20.8408Q166.295 20.8408 166.355 20.8676Q166.445 20.9072 166.508 21.0061C166.579 21.1162 166.614 21.254 166.614 21.4193C166.614 21.8049 166.47 22.2292 166.182 22.692C165.894 23.1548 165.457 23.5543 164.87 23.8904ZM158.057 21.816C157.623 21.816 157.272 21.637 157.006 21.2788C156.74 20.9207 156.607 20.3724 156.607 19.6342C156.607 18.8628 156.734 18.2788 156.99 17.8821C157.245 17.4855 157.585 17.2871 158.008 17.2871C158.258 17.2871 158.476 17.3119 158.66 17.3615L158.741 17.3862L158.741 21.6277L158.688 21.6578C158.515 21.7482 158.336 21.7998 158.151 21.8127L158.057 21.816ZM178.561 23.1052C177.529 23.9978 176.046 24.4441 174.112 24.4441Q173.134 24.4441 172.49 24.2623C172.061 24.1411 171.713 24.0199 171.447 23.8987C171.18 23.7775 170.966 23.7168 170.803 23.7168C170.64 23.7168 170.425 23.7775 170.159 23.8987L169.36 24.2623Q168.961 24.4441 168.684 24.4441C168.521 24.4441 168.369 24.389 168.228 24.2788C168.086 24.1686 167.978 23.9482 167.902 23.6177L167.396 20.3284C167.338 20.0771 167.308 19.8497 167.308 19.6461C167.308 19.5104 167.321 19.3851 167.348 19.2705C167.413 18.984 167.559 18.7968 167.788 18.7085C168.027 18.5984 168.263 18.5929 168.497 18.692C168.73 18.7913 168.939 18.9675 169.124 19.2209C169.743 20.1797 170.303 20.9344 170.803 21.4854C171.303 22.0364 171.789 22.4248 172.262 22.6508C172.734 22.8766 173.231 22.9895 173.753 22.9895C174.307 22.9895 174.72 22.8573 174.992 22.5929C175.263 22.3284 175.399 21.9923 175.399 21.5846C175.399 21.276 175.32 20.9951 175.163 20.7416C175.005 20.4882 174.717 20.254 174.299 20.0392C173.881 19.8242 173.28 19.6122 172.498 19.4027C171.292 19.0942 170.292 18.692 169.499 18.1962C168.706 17.7003 168.116 17.1052 167.731 16.411C167.345 15.7168 167.152 14.9069 167.152 13.9813C167.152 12.9344 167.41 12.0336 167.926 11.2788C168.442 10.5239 169.149 9.94275 170.045 9.53503Q171.39 8.92346 173.068 8.92346C173.742 8.92346 174.291 8.9895 174.715 9.12183C175.138 9.25403 175.467 9.38623 175.701 9.51843C175.934 9.65076 176.111 9.7168 176.23 9.7168C176.361 9.7168 176.554 9.65344 176.809 9.52673C177.064 9.40002 177.322 9.276 177.583 9.15479Q177.974 8.97302 178.235 8.97302C178.431 8.97302 178.588 9.03918 178.708 9.17139C178.827 9.30359 178.909 9.52954 178.952 9.849L179.376 12.8904C179.42 13.1475 179.443 13.3699 179.443 13.5576C179.443 13.6918 179.431 13.8082 179.409 13.9069C179.354 14.1438 179.213 14.2953 178.985 14.3615Q178.953 14.3691 178.92 14.3737Q178.672 14.4073 178.398 14.254C178.192 14.1383 177.985 13.9537 177.779 13.7003C176.986 12.4991 176.26 11.6508 175.603 11.1548C174.945 10.6589 174.247 10.411 173.508 10.411Q172.71 10.411 172.302 10.7582C172.031 10.9895 171.895 11.2926 171.895 11.6672C171.895 11.9207 171.955 12.1576 172.074 12.3779Q172.253 12.7085 172.734 12.9978C173.055 13.1907 173.508 13.3807 174.095 13.5681C175.671 14.0529 176.893 14.5681 177.762 15.1135C178.632 15.6589 179.24 16.2843 179.588 16.9895C179.936 17.6948 180.109 18.5157 180.109 19.4524C180.109 20.9951 179.593 22.2126 178.561 23.1052ZM189.563 23.8242Q188.487 24.3945 187.02 24.3945C185.368 24.3945 184.127 23.9923 183.296 23.1879C182.465 22.3835 182.049 21.1162 182.049 19.3862L182.049 11.9152C182.049 11.6837 182.027 11.5074 181.984 11.3862C181.94 11.265 181.832 11.1659 181.658 11.0887L180.892 10.8408C180.707 10.7527 180.588 10.6451 180.533 10.5184C180.479 10.3917 180.452 10.2347 180.452 10.0474C180.452 9.81604 180.533 9.62585 180.696 9.47717C180.859 9.32837 181.06 9.25403 181.299 9.25403L182.098 9.25403Q182.245 9.25403 182.408 9.13831C182.516 9.06116 182.663 8.90686 182.848 8.67554L185.863 6.14661Q186.189 5.74988 186.515 5.54321Q186.841 5.33667 187.167 5.33667C187.417 5.33667 187.612 5.41382 187.753 5.56812L187.798 5.6228C187.91 5.77734 187.965 6.00146 187.965 6.29529L187.965 9.25403L191.372 9.25403C191.611 9.25403 191.796 9.3064 191.926 9.41101C192.056 9.51575 192.122 9.67822 192.122 9.89868C192.122 10.2072 191.986 10.4717 191.714 10.692L191.653 10.7375C191.38 10.9276 190.965 11.0226 190.41 11.0226L187.965 11.0226L187.965 18.5598C187.965 19.3862 188.104 19.9978 188.381 20.3945C188.658 20.7913 189.063 20.9895 189.595 20.9895C189.823 20.9895 190.035 20.9399 190.231 20.8408C190.426 20.7416 190.603 20.6122 190.761 20.4524C190.918 20.2926 191.068 20.1135 191.209 19.9152C191.35 19.7168 191.486 19.5184 191.616 19.3201C191.725 19.276 191.82 19.2953 191.901 19.3779C191.973 19.4509 192.009 19.5903 192.009 19.7963C192.009 19.8236 192.009 19.8523 192.007 19.8821C191.931 20.7747 191.684 21.5598 191.266 22.2374C190.848 22.9152 190.28 23.4441 189.563 23.8242ZM203.889 23.5846C202.835 24.1245 201.618 24.3945 200.238 24.3945C198.717 24.3945 197.381 24.0778 196.229 23.4441C195.077 22.8104 194.178 21.9235 193.531 20.783C192.885 19.6425 192.562 18.3229 192.562 16.8242Q192.562 14.4606 193.499 12.6837C194.124 11.4991 195.028 10.5763 196.213 9.91516Q197.989 8.92346 200.483 8.92346C201.895 8.92346 203.112 9.20166 204.134 9.75818Q205.188 10.3325 205.906 11.1887Q206.232 11.5767 206.489 12.0226C207.038 12.9758 207.312 14.0364 207.312 15.2045C207.312 15.7113 207.176 16.1107 206.904 16.4027L206.84 16.4675C206.572 16.7164 206.202 16.8408 205.731 16.8408L198.28 16.8408L198.296 16.917C198.494 17.8245 198.832 18.5511 199.309 19.0969Q199.755 19.6069 200.31 19.9307Q201.275 20.4937 202.569 20.4937C203.438 20.4937 204.207 20.2953 204.875 19.8987C205.543 19.502 205.992 18.9509 206.22 18.2457C206.35 18.1025 206.467 18.0061 206.57 17.9565C206.674 17.9069 206.763 17.8821 206.839 17.8821C206.948 17.8821 207.04 17.9261 207.116 18.0143C207.192 18.1025 207.23 18.2512 207.23 18.4606C207.23 19.5405 206.937 20.5295 206.35 21.4276C205.764 22.3257 204.943 23.0447 203.889 23.5846ZM198.11 15.5157Q198.087 15.1355 198.087 14.7251C198.087 13.6893 198.163 12.8739 198.315 12.2788C198.467 11.6837 198.663 11.2623 198.902 11.0143C199.141 10.7664 199.407 10.6425 199.7 10.6425C200.081 10.6425 200.437 10.9675 200.768 11.6177C201.099 12.2678 201.265 13.3477 201.265 14.8573C201.265 15.3201 201.059 15.5515 200.646 15.5515L198.112 15.5515L198.11 15.5157ZM217.784 23.8573C217.648 23.9951 217.45 24.064 217.189 24.064L209.04 24.064C208.801 24.064 208.613 23.9978 208.477 23.8656C208.341 23.7334 208.273 23.5515 208.273 23.3201C208.273 23.1438 208.314 22.9978 208.396 22.8821Q208.518 22.7085 208.73 22.5598L209.105 22.411Q209.217 22.3583 209.293 22.2729Q209.36 22.1976 209.398 22.0969C209.452 21.9537 209.48 21.7168 209.48 21.3862L209.48 12.9895C209.48 12.7251 209.45 12.535 209.39 12.4193Q209.381 12.4027 209.372 12.3868Q209.28 12.2363 209.088 12.1466L208.665 12.0969C208.513 12.0088 208.401 11.9152 208.331 11.816C208.26 11.7168 208.225 11.5901 208.225 11.4358C208.225 11.2595 208.279 11.1025 208.388 10.9647C208.496 10.827 208.681 10.7085 208.942 10.6094L213.571 9.27051Q213.978 9.10522 214.255 9.03918C214.44 8.99512 214.597 8.97302 214.728 8.97302C214.913 8.97302 215.051 9.03918 215.143 9.17139L215.173 9.21936C215.249 9.35754 215.302 9.57849 215.331 9.88208L215.455 12.4509L215.483 12.3557C215.538 12.1768 215.599 12.0051 215.665 11.8408Q216.26 10.3615 217.238 9.64246C217.89 9.16309 218.601 8.92346 219.373 8.92346C220.307 8.92346 221.025 9.23743 221.524 9.8656C222.024 10.4937 222.274 11.4469 222.274 12.7251C222.274 13.9923 222.013 14.9235 221.492 15.5184C220.97 16.1135 220.297 16.411 219.471 16.411C218.667 16.411 218.072 16.2072 217.686 15.7994C217.3 15.3917 217.097 14.8132 217.075 14.064L217.059 13.4027C217.048 13.1493 216.999 12.9509 216.912 12.8077C216.825 12.6644 216.684 12.5929 216.488 12.5929C216.292 12.5929 216.121 12.6948 215.975 12.8987C215.828 13.1025 215.717 13.4138 215.641 13.8325C215.564 14.2512 215.526 14.7856 215.526 15.4358L215.526 21.254C215.526 21.5625 215.575 21.8077 215.673 21.9895C215.771 22.1714 215.923 22.2843 216.129 22.3284L217.352 22.5763C217.58 22.6094 217.743 22.6948 217.841 22.8325C217.939 22.9702 217.988 23.1328 217.988 23.3201C217.988 23.5405 217.92 23.7196 217.784 23.8573ZM234.351 23.1052C233.319 23.9978 231.836 24.4441 229.902 24.4441Q228.924 24.4441 228.28 24.2623C227.851 24.1411 227.503 24.0199 227.237 23.8987C226.971 23.7775 226.756 23.7168 226.593 23.7168C226.43 23.7168 226.216 23.7775 225.949 23.8987L225.151 24.2623Q224.751 24.4441 224.474 24.4441C224.311 24.4441 224.159 24.389 224.018 24.2788C223.877 24.1686 223.768 23.9482 223.692 23.6177L223.187 20.3284C223.128 20.0771 223.099 19.8497 223.099 19.6461C223.099 19.5104 223.112 19.3851 223.138 19.2705C223.203 18.984 223.35 18.7968 223.578 18.7085C223.817 18.5984 224.053 18.5929 224.287 18.692C224.521 18.7913 224.73 18.9675 224.914 19.2209C225.534 20.1797 226.093 20.9344 226.593 21.4854C227.093 22.0364 227.579 22.4248 228.052 22.6508C228.525 22.8766 229.022 22.9895 229.543 22.9895C230.097 22.9895 230.51 22.8573 230.782 22.5929C231.054 22.3284 231.189 21.9923 231.189 21.5846C231.189 21.276 231.111 20.9951 230.953 20.7416C230.796 20.4882 230.508 20.254 230.089 20.0392C229.671 19.8242 229.071 19.6122 228.288 19.4027C227.082 19.0942 226.083 18.692 225.289 18.1962C224.496 17.7003 223.907 17.1052 223.521 16.411C223.135 15.7168 222.942 14.9069 222.942 13.9813C222.942 12.9344 223.2 12.0336 223.717 11.2788C224.233 10.5239 224.939 9.94275 225.835 9.53503Q227.18 8.92346 228.859 8.92346C229.532 8.92346 230.081 8.9895 230.505 9.12183C230.929 9.25403 231.257 9.38623 231.491 9.51843C231.725 9.65076 231.901 9.7168 232.021 9.7168C232.151 9.7168 232.344 9.65344 232.599 9.52673C232.855 9.40002 233.113 9.276 233.373 9.15479Q233.765 8.97302 234.025 8.97302C234.221 8.97302 234.379 9.03918 234.498 9.17139C234.618 9.30359 234.699 9.52954 234.743 9.849L235.166 12.8904C235.211 13.1475 235.233 13.3699 235.233 13.5576C235.233 13.6918 235.222 13.8082 235.199 13.9069C235.145 14.1438 235.003 14.2953 234.775 14.3615Q234.743 14.3691 234.71 14.3737Q234.462 14.4073 234.188 14.254C233.982 14.1383 233.776 13.9537 233.569 13.7003C232.776 12.4991 232.051 11.6508 231.393 11.1548C230.736 10.6589 230.038 10.411 229.299 10.411Q228.5 10.411 228.093 10.7582C227.821 10.9895 227.685 11.2926 227.685 11.6672C227.685 11.9207 227.745 12.1576 227.865 12.3779Q228.044 12.7085 228.525 12.9978C228.845 13.1907 229.299 13.3807 229.886 13.5681C231.461 14.0529 232.684 14.5681 233.553 15.1135C234.422 15.6589 235.031 16.2843 235.378 16.9895C235.726 17.6948 235.9 18.5157 235.9 19.4524C235.9 20.9951 235.384 22.2126 234.351 23.1052Z" clip-rule="evenodd" fill="#FFFFFF" fill-opacity="1.000000" fill-rule="evenodd"/>
	<path id="Combined Shape" d="M14.3892 4.44678C10.8747 0.935181 5.66534 0.429688 2.77637 3.32178C-0.114014 6.21228 0.391418 11.4219 3.89984 14.9349C4.83582 15.871 5.91431 16.5864 7.0528 17.0995C7.42627 14.929 8.49725 12.8424 10.1232 11.1294C9.58472 10.9374 9.03278 10.7754 8.45679 10.6179C5.04584 9.68188 3.35089 6.8363 2.9549 3.50024C3.91785 4.65833 4.62732 5.98279 5.80634 6.95337C7.06329 7.98828 8.44775 8.36328 9.96722 8.80432C10.6557 9.00378 11.2542 9.29932 11.8032 9.64441C13.2462 8.58984 14.8736 7.88782 16.5536 7.59827C16.0421 6.45984 15.3251 5.38281 14.3892 4.44678ZM8.44629 17.9335C8.66974 15.76 9.72272 13.6344 11.4102 11.9469C14.9246 8.4353 20.134 7.92834 23.0229 10.8219C25.9134 13.7124 25.4094 18.922 21.8965 22.4351C20.209 24.1226 18.0836 25.1755 15.9101 25.4006C15.6206 25.4291 15.3341 25.4441 15.0536 25.4441C13.1846 25.4441 11.5152 24.7886 10.2852 23.5586C8.86926 22.144 8.21527 20.146 8.44629 17.9335ZM17.3411 18.1195C15.9851 18.49 14.7386 18.838 13.5867 19.717C12.2697 20.7235 11.5047 22.1276 10.4622 23.3801C10.8432 20.0966 12.4932 17.275 15.8306 16.3059C17.3516 15.865 18.7346 15.4884 19.9915 14.455C21.172 13.4844 21.8815 12.1614 22.843 11.0018C22.4454 14.3379 20.752 17.1835 17.3411 18.1195Z" clip-rule="evenodd" fill="#0E8784" fill-opacity="1.000000" fill-rule="evenodd"/>
</svg>
