<svg width="236.000000" height="26.000000" viewBox="0 0 236 26" fill="none" xmlns="http://www.w3.org/2000/svg" xmlns:xlink="http://www.w3.org/1999/xlink">
	<desc>
			Created with Pixso.
	</desc>
	<defs/>
	<path id="coffeeroasters" d="M43.5591 23.6836C42.5812 24.1575 41.4403 24.3944 40.1364 24.3944Q38.1965 24.3944 36.636 23.625L36.635 23.6245Q36.5309 23.5731 36.4285 23.5183Q35.7607 23.1613 35.2081 22.6737Q34.4051 21.9652 33.8451 20.9812Q32.8998 19.3199 32.8998 16.9398Q32.8998 14.8129 33.7449 13.1038Q33.8127 12.9667 33.8859 12.8324Q34.399 11.8905 35.1218 11.1545Q35.7879 10.4763 36.6322 9.9729Q36.7159 9.92297 36.801 9.87537Q38.5041 8.92334 40.7394 8.92334Q42.7442 8.92334 44.1214 9.51831Q45.4987 10.1134 46.2239 11.1299Q46.575 11.6219 46.7562 12.17Q46.9492 12.7545 46.9492 13.4026Q46.9492 14.511 46.4167 15.2188L46.4167 15.2189Q46.3139 15.3553 46.1913 15.4771Q46.0582 15.6093 45.9081 15.7181Q45.2043 16.2291 44.1296 16.2291Q42.9856 16.2291 42.3133 15.666Q42.2001 15.5712 42.1004 15.4604C41.6386 14.9481 41.4077 14.2456 41.4077 13.353L41.4077 12.2952Q41.4077 11.4854 41.1143 11.072C40.9187 10.7966 40.6417 10.6588 40.2831 10.6588Q40.1321 10.6588 39.9896 10.6934Q39.624 10.7817 39.3133 11.0968C39.0254 11.3889 38.8026 11.8269 38.6451 12.4109Q38.4088 13.287 38.4088 14.5762C38.4088 15.8103 38.5908 16.8462 38.9547 17.6836C39.3187 18.5211 39.8159 19.1492 40.446 19.568Q40.7485 19.7689 41.0777 19.9055Q41.7773 20.196 42.5975 20.196C43.4016 20.196 44.0753 20.0776 44.6185 19.8407C45.1618 19.6038 45.5801 19.2043 45.8735 18.6423C46.0365 18.488 46.1642 18.3889 46.2565 18.3448C46.3489 18.3007 46.4385 18.2787 46.5255 18.2787C46.6342 18.2897 46.7238 18.342 46.7944 18.4357C46.8556 18.5168 46.8862 18.6373 46.8862 18.7971C46.8862 18.8218 46.8855 18.8473 46.884 18.8738C46.7971 19.9536 46.4657 20.9067 45.8898 21.7333C45.314 22.5597 44.537 23.2098 43.5591 23.6836ZM60.1267 23.353C58.9043 24.0253 57.4836 24.3613 55.8646 24.3613Q53.5013 24.3613 51.7166 23.3778Q50.7104 22.8234 49.9555 22.0299Q49.3714 21.4159 48.9377 20.6588Q48.9053 20.6024 48.8741 20.5454Q47.9435 18.8491 47.9435 16.6423Q47.9435 15.0133 48.525 13.6284Q48.7223 13.1584 48.9866 12.7167C49.682 11.5542 50.6436 10.6313 51.8715 9.94812Q51.9116 9.92578 51.952 9.90393Q53.7654 8.92334 56.1091 8.92334Q58.4887 8.92334 60.2653 9.91504C61.4496 10.5762 62.3732 11.4908 63.036 12.6588C63.6989 13.8269 64.0303 15.1768 64.0303 16.7084C64.0303 18.163 63.6852 19.4661 62.9953 20.6176C62.3053 21.769 61.3491 22.6809 60.1267 23.353ZM57.1033 22.6423C56.7665 22.7084 56.4378 22.5597 56.1172 22.196C55.7967 21.8324 55.4924 21.2208 55.2045 20.3613Q54.7726 19.072 54.3814 16.9729C54.1315 15.5735 53.9903 14.4219 53.9576 13.5183C53.9522 13.3678 53.9495 13.2233 53.9495 13.085Q53.9495 12.0472 54.1533 11.4688C54.3162 11.006 54.5662 10.736 54.903 10.6588C55.2398 10.5928 55.5685 10.7415 55.889 11.1051C56.2096 11.4688 56.5165 12.0803 56.8099 12.9398C57.1033 13.7993 57.3804 14.9288 57.6412 16.3282C57.902 17.7277 58.0459 18.882 58.0731 19.7911C58.0768 19.9174 58.0787 20.0393 58.0787 20.157C58.0787 20.8864 58.0062 21.4504 57.8612 21.8489C57.6928 22.3118 57.4401 22.5762 57.1033 22.6423ZM75.6512 23.3035C75.6512 23.8103 75.3959 24.0638 74.8852 24.0638L65.8883 24.0638C65.671 24.0638 65.4944 24.0005 65.3586 23.8738C65.2228 23.7469 65.1548 23.568 65.1548 23.3365C65.1548 23.1382 65.201 22.9784 65.2934 22.8572C65.3857 22.736 65.5297 22.6368 65.7253 22.5597L66.4261 22.3448Q66.5557 22.3037 66.657 22.226Q66.7598 22.1472 66.8336 22.0308C66.9314 21.8765 66.9803 21.6561 66.9803 21.3696L66.9803 11.8159C66.9803 11.6616 66.9423 11.5321 66.8662 11.4275C66.7902 11.3228 66.6489 11.2263 66.4424 11.1382L65.4971 10.8241C65.2472 10.7029 65.0679 10.5735 64.9593 10.4357Q64.9229 10.3895 64.8946 10.3389Q64.7963 10.1626 64.7963 9.93152C64.7963 9.73328 64.8642 9.57068 65 9.44397L65.0533 9.39941C65.1835 9.30237 65.3531 9.25391 65.5623 9.25391L66.9926 9.25391L66.9813 9.15735C66.9507 8.96411 66.8744 8.77869 66.7521 8.60095C66.5891 8.36414 66.4044 8.0968 66.198 7.79932Q65.8883 7.35303 65.6438 6.73328Q65.3994 6.1134 65.3994 5.20435Q65.3994 3.80371 66.0131 2.76611Q66.3482 2.19971 66.8662 1.74146C67.8441 0.876465 69.235 0.44397 71.0387 0.44397C72.2013 0.44397 73.1656 0.631348 73.9317 1.00598C74.6978 1.38062 75.2709 1.87927 75.6512 2.50183C76.0315 3.12439 76.2217 3.80481 76.2217 4.54309Q76.2217 5.80273 75.5922 6.45483Q75.5692 6.47876 75.5453 6.50183C75.0944 6.93713 74.5157 7.15466 73.8094 7.15466C73.0271 7.15466 72.3969 6.90125 71.9188 6.39441C71.4407 5.88745 71.2017 5.21533 71.2017 4.37781L71.2017 2.90674Q71.2017 2.32825 70.9735 2.05554C70.8214 1.87378 70.5878 1.78284 70.2726 1.78284C69.8706 1.78284 69.5663 1.92053 69.3599 2.19604C69.1534 2.47156 69.0502 2.86816 69.0502 3.38611C69.0502 3.91504 69.1725 4.41089 69.417 4.87378Q69.4204 4.88025 69.4238 4.88672Q69.7887 5.57361 70.3215 6.17126C70.6801 6.57349 71.0387 6.95911 71.3973 7.32825Q71.9351 7.88196 72.3018 8.41919L72.3715 8.52649Q72.5695 8.84839 72.6356 9.16724L72.6505 9.25391L75.0645 9.25391Q75.4393 9.25391 75.6431 9.41089C75.7789 9.51562 75.8468 9.6781 75.8468 9.89856C75.8468 10.2291 75.7056 10.499 75.423 10.7084C75.1405 10.9178 74.695 11.0225 74.0865 11.0225L72.9293 11.0225L72.9293 21.3199C72.9293 21.6285 72.9755 21.8655 73.0679 22.0308C73.1602 22.196 73.3096 22.2952 73.5161 22.3282L74.9178 22.5431C75.1677 22.5762 75.3524 22.6561 75.4719 22.7828C75.5914 22.9095 75.6512 23.0831 75.6512 23.3035ZM87.0277 23.3035C87.0277 23.8103 86.7723 24.0638 86.2617 24.0638L77.2648 24.0638C77.0475 24.0638 76.8709 24.0005 76.735 23.8738C76.5992 23.7469 76.5313 23.568 76.5313 23.3365C76.5313 23.1382 76.5775 22.9784 76.6699 22.8572C76.7622 22.736 76.9062 22.6368 77.1018 22.5597L77.8026 22.3448Q77.9321 22.3037 78.0336 22.226Q78.1363 22.1472 78.2101 22.0308C78.3079 21.8765 78.3568 21.6561 78.3568 21.3696L78.3568 11.8159C78.3568 11.6616 78.3187 11.5321 78.2427 11.4275C78.1666 11.3228 78.0254 11.2263 77.8189 11.1382L76.8736 10.8241C76.6237 10.7029 76.4444 10.5735 76.3358 10.4357Q76.2993 10.3895 76.2711 10.3389Q76.1728 10.1626 76.1728 9.93152C76.1728 9.73328 76.2407 9.57068 76.3765 9.44397L76.4299 9.39941C76.56 9.30237 76.7296 9.25391 76.9388 9.25391L78.369 9.25391L78.3578 9.15735C78.3273 8.96411 78.2509 8.77869 78.1286 8.60095C77.9656 8.36414 77.7809 8.0968 77.5745 7.79932Q77.2648 7.35303 77.0203 6.73328Q76.7758 6.1134 76.7758 5.20435Q76.7758 3.80371 77.3896 2.76611Q77.7247 2.19971 78.2427 1.74146C79.2206 0.876465 80.6115 0.44397 82.4152 0.44397C83.5778 0.44397 84.5421 0.631348 85.3082 1.00598C86.0742 1.38062 86.6474 1.87927 87.0277 2.50183C87.408 3.12439 87.5981 3.80481 87.5981 4.54309C87.5981 5.4137 87.3727 6.06653 86.9218 6.50183C86.4708 6.93713 85.8922 7.15466 85.1859 7.15466C84.4036 7.15466 83.7734 6.90125 83.2953 6.39441C82.8172 5.88745 82.5781 5.21533 82.5781 4.37781L82.5781 2.90674Q82.5781 2.32825 82.35 2.05554C82.1978 1.87378 81.9642 1.78284 81.6491 1.78284C81.2471 1.78284 80.9429 1.92053 80.7364 2.19604C80.53 2.47156 80.4267 2.86816 80.4267 3.38611C80.4267 3.91504 80.549 4.41089 80.7935 4.87378Q80.7969 4.88025 80.8003 4.8866Q81.1652 5.57361 81.698 6.17126C82.0566 6.57349 82.4152 6.95911 82.7737 7.32825Q83.3116 7.88196 83.6783 8.41919L83.748 8.52649Q83.946 8.84839 84.012 9.16724L84.0269 9.25391L86.4409 9.25391Q86.8158 9.25391 87.0195 9.41089C87.1553 9.51562 87.2233 9.6781 87.2233 9.89856C87.2233 10.2291 87.082 10.499 86.7995 10.7084C86.517 10.9178 86.0715 11.0225 85.463 11.0225L84.3058 11.0225L84.3058 21.3199C84.3058 21.6285 84.352 21.8655 84.4443 22.0308C84.5367 22.196 84.6861 22.2952 84.8926 22.3282L86.2943 22.5431C86.5441 22.5762 86.7289 22.6561 86.8484 22.7828C86.9679 22.9095 87.0277 23.0831 87.0277 23.3035ZM99.0235 23.5845C97.9695 24.1244 96.7526 24.3944 95.3726 24.3944C93.8514 24.3944 92.5149 24.0776 91.3632 23.444C90.2114 22.8103 89.3122 21.9233 88.6657 20.7828C88.0192 19.6423 87.6959 18.3228 87.6959 16.8241C87.6959 15.2484 88.0083 13.8682 88.6331 12.6836C89.2579 11.499 90.1625 10.5762 91.3468 9.91504C92.5312 9.25391 93.9546 8.92334 95.6171 8.92334C97.0297 8.92334 98.2466 9.20154 99.268 9.75806C100.289 10.3145 101.074 11.0693 101.623 12.0225Q101.851 12.4189 102.016 12.8401Q102.446 13.938 102.446 15.2043C102.446 15.7112 102.31 16.1106 102.039 16.4026L101.974 16.4674C101.706 16.7163 101.337 16.8407 100.865 16.8407L93.4145 16.8407L93.4305 16.9169C93.6282 17.8243 93.9659 18.551 94.4436 19.0968C95.2585 20.028 96.3451 20.4935 97.7033 20.4935C98.5726 20.4935 99.3413 20.2952 100.01 19.8986C100.678 19.5018 101.126 18.9508 101.354 18.2456C101.485 18.1024 101.601 18.006 101.705 17.9564C101.808 17.9067 101.898 17.882 101.974 17.882C102.082 17.882 102.175 17.926 102.251 18.0142C102.327 18.1024 102.365 18.2511 102.365 18.4604C102.365 19.5404 102.071 20.5294 101.485 21.4275C100.898 22.3256 100.078 23.0446 99.0235 23.5845ZM93.2444 15.5156Q93.2212 15.1354 93.2212 14.725C93.2212 13.6892 93.2972 12.8738 93.4493 12.2787C93.6015 11.6836 93.7971 11.2622 94.0361 11.0142C94.2751 10.7662 94.5414 10.6423 94.8347 10.6423C95.215 10.6423 95.5709 10.9674 95.9023 11.6176Q96.3994 12.5928 96.3994 14.8572C96.3994 15.3199 96.193 15.5514 95.7801 15.5514L93.2465 15.5514L93.2444 15.5156ZM114.605 23.5845C113.551 24.1244 112.334 24.3944 110.954 24.3944C109.433 24.3944 108.096 24.0776 106.945 23.444C105.793 22.8103 104.894 21.9233 104.247 20.7828C103.601 19.6423 103.277 18.3228 103.277 16.8241C103.277 15.2484 103.59 13.8682 104.215 12.6836C104.839 11.499 105.744 10.5762 106.928 9.91504C108.113 9.25391 109.536 8.92334 111.199 8.92334C112.611 8.92334 113.828 9.20154 114.849 9.75806C115.871 10.3145 116.656 11.0693 117.205 12.0225C117.753 12.9757 118.028 14.0363 118.028 15.2043C118.028 15.7112 117.892 16.1106 117.62 16.4026L117.555 16.4674C117.288 16.7163 116.918 16.8407 116.447 16.8407L108.996 16.8407L109.012 16.9169C109.21 17.8243 109.547 18.551 110.025 19.0968Q110.471 19.6067 111.026 19.9305Q111.991 20.4935 113.285 20.4935C114.154 20.4935 114.923 20.2952 115.591 19.8986C116.259 19.5018 116.708 18.9508 116.936 18.2456C117.066 18.1024 117.183 18.006 117.286 17.9564C117.389 17.9067 117.479 17.882 117.555 17.882C117.664 17.882 117.756 17.926 117.832 18.0142C117.908 18.1024 117.946 18.2511 117.946 18.4604C117.946 19.5404 117.653 20.5294 117.066 21.4275C116.479 22.3256 115.659 23.0446 114.605 23.5845ZM108.826 15.5156Q108.803 15.1354 108.803 14.725C108.803 13.6892 108.879 12.8738 109.031 12.2787C109.183 11.6836 109.379 11.2622 109.618 11.0142Q109.888 10.7344 110.203 10.665Q110.307 10.6423 110.416 10.6423C110.797 10.6423 111.152 10.9674 111.484 11.6176C111.815 12.2677 111.981 13.3475 111.981 14.8572Q111.981 15.2438 111.789 15.415Q111.636 15.5514 111.362 15.5514L108.828 15.5514L108.826 15.5156ZM128.5 23.8572C128.364 23.995 128.166 24.0638 127.905 24.0638L119.755 24.0638C119.516 24.0638 119.329 23.9977 119.193 23.8655C119.057 23.7333 118.989 23.5514 118.989 23.3199C118.989 23.1437 119.03 22.9977 119.112 22.882Q119.234 22.7084 119.446 22.5597L119.821 22.4109Q119.933 22.3582 120.009 22.2728Q120.076 22.1975 120.114 22.0968C120.168 21.9536 120.195 21.7167 120.195 21.3861L120.195 12.9894C120.195 12.725 120.166 12.5349 120.106 12.4192C120.046 12.3035 119.946 12.2125 119.804 12.1465L119.381 12.0968C119.228 12.0087 119.117 11.915 119.046 11.8159C118.976 11.7167 118.94 11.59 118.94 11.4357C118.94 11.2594 118.995 11.1024 119.103 10.9646C119.212 10.8269 119.397 10.7084 119.658 10.6093L124.286 9.27039C124.558 9.16028 124.786 9.08313 124.971 9.03906Q125.248 8.9729 125.444 8.9729C125.628 8.9729 125.767 9.03906 125.859 9.17126L125.889 9.21924C125.965 9.35742 126.018 9.57837 126.047 9.88196L126.171 12.4504L126.199 12.3556C126.254 12.1766 126.315 12.005 126.381 11.8407C126.777 10.8545 127.302 10.1217 127.954 9.64233Q128.562 9.19495 129.24 9.026Q129.652 8.92334 130.089 8.92334C131.023 8.92334 131.74 9.2373 132.24 9.86548C132.74 10.4935 132.99 11.4468 132.99 12.725Q132.99 14.6257 132.208 15.5183C131.686 16.1134 131.012 16.4109 130.187 16.4109Q128.998 16.4109 128.418 15.8167Q128.41 15.8081 128.402 15.7993C128.016 15.3916 127.812 14.8131 127.791 14.0638L127.774 13.4026C127.763 13.1492 127.715 12.9508 127.628 12.8076C127.541 12.6643 127.399 12.5928 127.204 12.5928C127.008 12.5928 126.837 12.6947 126.69 12.8986C126.544 13.1024 126.432 13.4137 126.356 13.8324Q126.242 14.4604 126.242 15.4357L126.242 21.2539C126.242 21.5624 126.291 21.8076 126.389 21.9894C126.487 22.1713 126.639 22.2842 126.845 22.3282L128.068 22.5762Q128.39 22.6228 128.539 22.8083Q128.548 22.8201 128.557 22.8324Q128.59 22.8794 128.616 22.9302Q128.703 23.1029 128.703 23.3199C128.703 23.5404 128.635 23.7195 128.5 23.8572ZM145.793 23.353C144.57 24.0253 143.149 24.3613 141.53 24.3613C139.955 24.3613 138.572 24.0334 137.382 23.3778Q136.376 22.8234 135.621 22.0299Q135.037 21.416 134.604 20.6588Q134.571 20.6024 134.54 20.5454Q133.609 18.8491 133.609 16.6423C133.609 15.1877 133.957 13.8793 134.652 12.7167C135.348 11.5542 136.309 10.6313 137.537 9.94812Q137.577 9.92578 137.618 9.90393Q139.431 8.92334 141.775 8.92334C143.361 8.92334 144.747 9.25391 145.931 9.91504C147.115 10.5762 148.039 11.4908 148.702 12.6588Q148.727 12.7035 148.752 12.7485Q149.696 14.4695 149.696 16.7084C149.696 18.163 149.351 19.4661 148.661 20.6176C147.971 21.769 147.015 22.6809 145.793 23.353ZM142.769 22.6423C142.432 22.7084 142.104 22.5597 141.783 22.196C141.463 21.8324 141.158 21.2208 140.87 20.3613Q140.438 19.072 140.047 16.9729C139.797 15.5735 139.656 14.4219 139.624 13.5183Q139.615 13.2925 139.615 13.085C139.615 12.3932 139.683 11.8545 139.819 11.4688C139.982 11.006 140.232 10.736 140.569 10.6588C140.906 10.5928 141.234 10.7415 141.555 11.1051C141.875 11.4688 142.182 12.0803 142.476 12.9398Q142.916 14.2291 143.307 16.3282C143.568 17.7277 143.712 18.882 143.739 19.7911C143.743 19.9174 143.745 20.0393 143.745 20.1569C143.745 20.8864 143.672 21.4504 143.527 21.8489C143.359 22.3118 143.106 22.5762 142.769 22.6423ZM164.87 23.8903C164.283 24.2263 163.534 24.3944 162.621 24.3944C161.523 24.3944 160.673 24.1603 160.07 23.6919L159.967 23.6082C159.633 23.3252 159.404 23.0051 159.278 22.6478L159.254 22.5739L159.232 22.6025C158.835 23.0933 158.318 23.4894 157.682 23.7911C156.835 24.1932 155.922 24.3944 154.944 24.3944Q153.185 24.3944 152.053 23.5522Q151.926 23.4579 151.807 23.353C151.019 22.6588 150.625 21.7719 150.625 20.6919C150.625 19.2704 151.198 18.163 152.345 17.3696C153.491 16.5762 155.232 16.1796 157.568 16.1796L157.744 16.1813C158.089 16.1886 158.393 16.2175 158.655 16.2681L158.741 16.287L158.742 11.4688C158.742 11.0831 158.652 10.7773 158.473 10.5514C158.294 10.3256 158.052 10.2125 157.748 10.2125C157.465 10.2125 157.229 10.298 157.039 10.4688C156.849 10.6395 156.753 10.8793 156.753 11.1877L156.753 12.444Q156.753 13.225 156.421 13.8207Q156.233 14.1578 155.938 14.4357C155.395 14.9481 154.651 15.2043 153.706 15.2043Q152.548 15.2043 151.937 14.6506C151.53 14.2815 151.326 13.7443 151.326 13.0391Q151.326 12.9791 151.329 12.9194Q151.376 11.9899 152.149 11.0968C152.698 10.4633 153.518 9.94263 154.61 9.53491C155.702 9.1272 157.063 8.92334 158.693 8.92334Q161.839 8.92334 163.314 10.1217C164.297 10.9205 164.789 12.0472 164.789 13.5018L164.789 20.8076C164.789 21.017 164.835 21.1851 164.927 21.3118C165.02 21.4385 165.158 21.5018 165.343 21.5018Q165.41 21.5018 165.474 21.4883Q165.597 21.4623 165.71 21.3861C165.824 21.309 165.908 21.1713 165.962 20.9729C165.995 20.9288 166.033 20.8958 166.076 20.8738C166.12 20.8517 166.169 20.8407 166.223 20.8407Q166.295 20.8407 166.355 20.8674Q166.445 20.9071 166.508 21.006C166.579 21.1161 166.614 21.2539 166.614 21.4192C166.614 21.8048 166.47 22.2291 166.182 22.6919C165.894 23.1547 165.457 23.5542 164.87 23.8903ZM158.057 21.8159C157.623 21.8159 157.272 21.6368 157.006 21.2787C156.74 20.9205 156.607 20.3723 156.607 19.634C156.607 18.8627 156.734 18.2787 156.99 17.882C157.245 17.4854 157.585 17.287 158.008 17.287C158.258 17.287 158.476 17.3118 158.66 17.3613L158.741 17.3861L158.741 21.6276L158.688 21.6577C158.515 21.748 158.336 21.7997 158.151 21.8126L158.057 21.8159ZM178.561 23.1051C177.529 23.9977 176.046 24.444 174.112 24.444Q173.134 24.444 172.49 24.2622C172.061 24.141 171.713 24.0198 171.447 23.8986C171.18 23.7773 170.966 23.7167 170.803 23.7167C170.64 23.7167 170.425 23.7773 170.159 23.8986L169.36 24.2622Q168.961 24.444 168.684 24.444C168.521 24.444 168.369 24.3889 168.228 24.2787C168.086 24.1685 167.978 23.9481 167.902 23.6176L167.396 20.3282C167.338 20.077 167.308 19.8496 167.308 19.646C167.308 19.5103 167.321 19.385 167.348 19.2704C167.413 18.9839 167.559 18.7966 167.788 18.7084C168.027 18.5983 168.263 18.5928 168.497 18.6919C168.73 18.7911 168.939 18.9674 169.124 19.2208C169.743 20.1796 170.303 20.9343 170.803 21.4852C171.303 22.0363 171.789 22.4247 172.262 22.6506C172.734 22.8765 173.231 22.9894 173.753 22.9894C174.307 22.9894 174.72 22.8572 174.992 22.5928C175.263 22.3282 175.399 21.9922 175.399 21.5845C175.399 21.2759 175.32 20.995 175.163 20.7415C175.005 20.488 174.717 20.2539 174.299 20.0391C173.881 19.8241 173.28 19.6121 172.498 19.4026C171.292 19.0941 170.292 18.6919 169.499 18.196C168.706 17.7002 168.116 17.1051 167.731 16.4109C167.345 15.7167 167.152 14.9067 167.152 13.9812C167.152 12.9343 167.41 12.0334 167.926 11.2787C168.442 10.5238 169.149 9.94263 170.045 9.53491Q171.39 8.92334 173.068 8.92334C173.742 8.92334 174.291 8.98938 174.715 9.1217C175.138 9.25391 175.467 9.38611 175.701 9.51831C175.934 9.65063 176.111 9.71667 176.23 9.71667C176.361 9.71667 176.554 9.65332 176.809 9.52661C177.064 9.3999 177.322 9.27588 177.583 9.15466Q177.974 8.9729 178.235 8.9729C178.431 8.9729 178.588 9.03906 178.708 9.17126C178.827 9.30347 178.909 9.52942 178.952 9.84888L179.376 12.8903C179.42 13.1473 179.443 13.3698 179.443 13.5575C179.443 13.6917 179.431 13.8081 179.409 13.9067C179.354 14.1437 179.213 14.2952 178.985 14.3613Q178.953 14.369 178.92 14.3735Q178.672 14.4072 178.398 14.2539C178.192 14.1382 177.985 13.9536 177.779 13.7002C176.986 12.499 176.26 11.6506 175.603 11.1547C174.945 10.6588 174.247 10.4109 173.508 10.4109Q172.71 10.4109 172.302 10.7581C172.031 10.9894 171.895 11.2925 171.895 11.6671C171.895 11.9205 171.955 12.1575 172.074 12.3778Q172.253 12.7084 172.734 12.9977C173.055 13.1906 173.508 13.3806 174.095 13.568C175.671 14.0527 176.893 14.568 177.762 15.1134C178.632 15.6588 179.24 16.2842 179.588 16.9894C179.936 17.6947 180.109 18.5156 180.109 19.4523C180.109 20.995 179.593 22.2125 178.561 23.1051ZM189.563 23.8241Q188.487 24.3944 187.02 24.3944C185.368 24.3944 184.127 23.9922 183.296 23.1877C182.465 22.3834 182.049 21.1161 182.049 19.3861L182.049 11.915C182.049 11.6836 182.027 11.5073 181.984 11.3861C181.94 11.2649 181.832 11.1658 181.658 11.0886L180.892 10.8407C180.707 10.7526 180.588 10.645 180.533 10.5183C180.479 10.3916 180.452 10.2346 180.452 10.0472C180.452 9.81592 180.533 9.62573 180.696 9.47705C180.859 9.32825 181.06 9.25391 181.299 9.25391L182.098 9.25391Q182.245 9.25391 182.408 9.13818C182.516 9.06104 182.663 8.90674 182.848 8.67542L185.863 6.14648Q186.189 5.74976 186.515 5.54309Q186.841 5.33655 187.167 5.33655C187.417 5.33655 187.612 5.4137 187.753 5.56799L187.798 5.62268C187.91 5.77722 187.965 6.00134 187.965 6.29517L187.965 9.25391L191.372 9.25391C191.611 9.25391 191.796 9.30627 191.926 9.41089C192.056 9.51562 192.122 9.6781 192.122 9.89856C192.122 10.207 191.986 10.4716 191.714 10.6919L191.653 10.7374C191.38 10.9275 190.965 11.0225 190.41 11.0225L187.965 11.0225L187.965 18.5597C187.965 19.3861 188.104 19.9977 188.381 20.3944C188.658 20.7911 189.063 20.9894 189.595 20.9894C189.823 20.9894 190.035 20.9398 190.231 20.8407C190.426 20.7415 190.603 20.6121 190.761 20.4523C190.918 20.2925 191.068 20.1134 191.209 19.915C191.35 19.7167 191.486 19.5183 191.616 19.3199C191.725 19.2759 191.82 19.2952 191.901 19.3778C191.973 19.4508 192.009 19.5902 192.009 19.7961C192.009 19.8235 192.009 19.8522 192.007 19.882C191.931 20.7745 191.684 21.5597 191.266 22.2373C190.848 22.915 190.28 23.444 189.563 23.8241ZM203.889 23.5845C202.835 24.1244 201.618 24.3944 200.238 24.3944C198.717 24.3944 197.381 24.0776 196.229 23.444C195.077 22.8103 194.178 21.9233 193.531 20.7828C192.885 19.6423 192.562 18.3228 192.562 16.8241Q192.562 14.4604 193.499 12.6836C194.124 11.499 195.028 10.5762 196.213 9.91504Q197.989 8.92334 200.483 8.92334C201.895 8.92334 203.112 9.20154 204.134 9.75806Q205.188 10.3324 205.906 11.1886Q206.232 11.5765 206.489 12.0225C207.038 12.9757 207.312 14.0363 207.312 15.2043C207.312 15.7112 207.176 16.1106 206.904 16.4026L206.84 16.4674C206.572 16.7163 206.202 16.8407 205.731 16.8407L198.28 16.8407L198.296 16.9169C198.494 17.8243 198.832 18.551 199.309 19.0968Q199.755 19.6068 200.31 19.9305Q201.275 20.4935 202.569 20.4935C203.438 20.4935 204.207 20.2952 204.875 19.8986C205.543 19.5018 205.992 18.9508 206.22 18.2456C206.35 18.1024 206.467 18.006 206.57 17.9564C206.674 17.9067 206.763 17.882 206.839 17.882C206.948 17.882 207.04 17.926 207.116 18.0142C207.192 18.1024 207.23 18.2511 207.23 18.4604C207.23 19.5404 206.937 20.5294 206.35 21.4275C205.764 22.3256 204.943 23.0446 203.889 23.5845ZM198.11 15.5156Q198.087 15.1354 198.087 14.725C198.087 13.6892 198.163 12.8738 198.315 12.2787C198.467 11.6836 198.663 11.2622 198.902 11.0142C199.141 10.7662 199.407 10.6423 199.7 10.6423C200.081 10.6423 200.437 10.9674 200.768 11.6176C201.099 12.2677 201.265 13.3475 201.265 14.8572C201.265 15.3199 201.059 15.5514 200.646 15.5514L198.112 15.5514L198.11 15.5156ZM217.784 23.8572C217.648 23.995 217.45 24.0638 217.189 24.0638L209.04 24.0638C208.801 24.0638 208.613 23.9977 208.477 23.8655C208.341 23.7333 208.273 23.5514 208.273 23.3199C208.273 23.1437 208.314 22.9977 208.396 22.882Q208.518 22.7084 208.73 22.5597L209.105 22.4109Q209.217 22.3582 209.293 22.2728Q209.36 22.1975 209.398 22.0968C209.452 21.9536 209.48 21.7167 209.48 21.3861L209.48 12.9894C209.48 12.725 209.45 12.5349 209.39 12.4192Q209.381 12.4026 209.372 12.3867Q209.28 12.2362 209.088 12.1465L208.665 12.0968C208.513 12.0087 208.401 11.915 208.331 11.8159C208.26 11.7167 208.225 11.59 208.225 11.4357C208.225 11.2594 208.279 11.1024 208.388 10.9646C208.496 10.8269 208.681 10.7084 208.942 10.6093L213.571 9.27039Q213.978 9.1051 214.255 9.03906C214.44 8.995 214.597 8.9729 214.728 8.9729C214.913 8.9729 215.051 9.03906 215.143 9.17126L215.173 9.21924C215.249 9.35742 215.302 9.57837 215.331 9.88196L215.455 12.4508L215.483 12.3556C215.538 12.1766 215.599 12.005 215.665 11.8407Q216.26 10.3613 217.238 9.64233C217.89 9.16296 218.601 8.92334 219.373 8.92334C220.307 8.92334 221.025 9.2373 221.524 9.86548C222.024 10.4935 222.274 11.4468 222.274 12.725C222.274 13.9922 222.013 14.9233 221.492 15.5183C220.97 16.1134 220.297 16.4109 219.471 16.4109C218.667 16.4109 218.072 16.207 217.686 15.7993C217.3 15.3916 217.097 14.8131 217.075 14.0638L217.059 13.4026C217.048 13.1492 216.999 12.9508 216.912 12.8076C216.825 12.6643 216.684 12.5928 216.488 12.5928C216.292 12.5928 216.121 12.6947 215.975 12.8986C215.828 13.1024 215.717 13.4137 215.641 13.8324C215.564 14.2511 215.526 14.7855 215.526 15.4357L215.526 21.2539C215.526 21.5624 215.575 21.8076 215.673 21.9894C215.771 22.1713 215.923 22.2842 216.129 22.3282L217.352 22.5762C217.58 22.6093 217.743 22.6947 217.841 22.8324C217.939 22.9701 217.988 23.1327 217.988 23.3199C217.988 23.5404 217.92 23.7195 217.784 23.8572ZM234.351 23.1051C233.319 23.9977 231.836 24.444 229.902 24.444Q228.924 24.444 228.28 24.2622C227.851 24.141 227.503 24.0198 227.237 23.8986C226.971 23.7773 226.756 23.7167 226.593 23.7167C226.43 23.7167 226.216 23.7773 225.949 23.8986L225.151 24.2622Q224.751 24.444 224.474 24.444C224.311 24.444 224.159 24.3889 224.018 24.2787C223.877 24.1685 223.768 23.9481 223.692 23.6176L223.187 20.3282C223.128 20.077 223.099 19.8496 223.099 19.646C223.099 19.5103 223.112 19.385 223.138 19.2704C223.203 18.9839 223.35 18.7966 223.578 18.7084C223.817 18.5983 224.053 18.5928 224.287 18.6919C224.521 18.7911 224.73 18.9674 224.914 19.2208C225.534 20.1796 226.093 20.9343 226.593 21.4852C227.093 22.0363 227.579 22.4247 228.052 22.6506C228.525 22.8765 229.022 22.9894 229.543 22.9894C230.097 22.9894 230.51 22.8572 230.782 22.5928C231.054 22.3282 231.189 21.9922 231.189 21.5845C231.189 21.2759 231.111 20.995 230.953 20.7415C230.796 20.488 230.508 20.2539 230.089 20.0391C229.671 19.8241 229.071 19.6121 228.288 19.4026C227.082 19.0941 226.083 18.6919 225.289 18.196C224.496 17.7002 223.907 17.1051 223.521 16.4109C223.135 15.7167 222.942 14.9067 222.942 13.9812C222.942 12.9343 223.2 12.0334 223.717 11.2787C224.233 10.5238 224.939 9.94263 225.835 9.53491Q227.18 8.92334 228.859 8.92334C229.532 8.92334 230.081 8.98938 230.505 9.1217C230.929 9.25391 231.257 9.38611 231.491 9.51831C231.725 9.65063 231.901 9.71667 232.021 9.71667C232.151 9.71667 232.344 9.65332 232.599 9.52661C232.855 9.3999 233.113 9.27588 233.373 9.15466Q233.765 8.9729 234.025 8.9729C234.221 8.9729 234.379 9.03906 234.498 9.17126C234.618 9.30347 234.699 9.52942 234.743 9.84888L235.166 12.8903C235.211 13.1473 235.233 13.3698 235.233 13.5575C235.233 13.6917 235.222 13.8081 235.199 13.9067C235.145 14.1437 235.003 14.2952 234.775 14.3613Q234.743 14.369 234.71 14.3735Q234.462 14.4072 234.188 14.2539C233.982 14.1382 233.776 13.9536 233.569 13.7002C232.776 12.499 232.051 11.6506 231.393 11.1547C230.736 10.6588 230.038 10.4109 229.299 10.4109Q228.5 10.4109 228.093 10.7581C227.821 10.9894 227.685 11.2925 227.685 11.6671C227.685 11.9205 227.745 12.1575 227.865 12.3778Q228.044 12.7084 228.525 12.9977C228.845 13.1906 229.299 13.3806 229.886 13.568C231.461 14.0527 232.684 14.568 233.553 15.1134C234.422 15.6588 235.031 16.2842 235.378 16.9894C235.726 17.6947 235.9 18.5156 235.9 19.4523C235.9 20.995 235.384 22.2125 234.351 23.1051Z" clip-rule="evenodd" fill="#333D4B" fill-opacity="1.000000" fill-rule="evenodd"/>
	<path id="Combined Shape" d="M14.3892 4.44666C10.8747 0.935059 5.66534 0.429565 2.77637 3.32166C-0.114014 6.21216 0.391418 11.4218 3.89984 14.9348C4.83582 15.8708 5.91431 16.5863 7.0528 17.0994C7.42627 14.9288 8.49725 12.8423 10.1232 11.1293C9.58472 10.9373 9.03278 10.7753 8.45679 10.6178C5.04584 9.68176 3.35089 6.83618 2.9549 3.50012C3.91785 4.6582 4.62732 5.98267 5.80634 6.95325C7.06329 7.98816 8.44775 8.36316 9.96722 8.8042C10.6557 9.00366 11.2542 9.29919 11.8032 9.64429C13.2462 8.58972 14.8736 7.8877 16.5536 7.59814C16.0421 6.45972 15.3251 5.38269 14.3892 4.44666ZM8.44629 17.9333C8.66974 15.7599 9.72272 13.6343 11.4102 11.9468C14.9246 8.43518 20.134 7.92822 23.0229 10.8218C25.9134 13.7123 25.4094 18.9219 21.8965 22.4349C20.209 24.1224 18.0836 25.1754 15.9101 25.4005C15.6206 25.429 15.3341 25.444 15.0536 25.444C13.1846 25.444 11.5152 24.7885 10.2852 23.5585C8.86926 22.1439 8.21527 20.1459 8.44629 17.9333ZM17.3411 18.1194C15.9851 18.4899 14.7386 18.8379 13.5867 19.7169C12.2697 20.7234 11.5047 22.1274 10.4622 23.38C10.8432 20.0964 12.4932 17.2749 15.8306 16.3058C17.3516 15.8649 18.7346 15.4883 19.9915 14.4548C21.172 13.4843 21.8815 12.1613 22.843 11.0017C22.4454 14.3378 20.752 17.1833 17.3411 18.1194Z" clip-rule="evenodd" fill="#0E8784" fill-opacity="1.000000" fill-rule="evenodd"/>
</svg>
